<svg xmlns="http://www.w3.org/2000/svg" xmlns:xlink="http://www.w3.org/1999/xlink" viewBox="0,0,256,256" width="32px" height="32px"><g fill="#ffffff" fill-rule="nonzero" stroke="none" stroke-width="1" stroke-linecap="butt" stroke-linejoin="miter" stroke-miterlimit="10" stroke-dasharray="" stroke-dashoffset="0" font-family="none" font-weight="none" font-size="none" text-anchor="none" style="mix-blend-mode: normal"><g transform="scale(8,8)"><path d="M25.92,13.74c-0.36,-0.8 -1.08,-1.42 -1.94,-1.66c-0.31,-0.08 -0.61,-0.14 -0.92,-0.21c0.08,-0.84 0.11,-1.69 0.04,-2.53c-0.3,-3.68 -3.39,-6.59 -7.04,-6.6c0,0 -0.11,-0.01 -0.11,0c-3.66,0.01 -6.75,2.92 -7.05,6.6c-0.07,0.84 -0.04,1.68 0.04,2.53c-0.31,0.07 -0.61,0.13 -0.92,0.21c-0.86,0.24 -1.58,0.86 -1.94,1.66c-1.82,4.15 -1.82,8.37 0,12.52c0.36,0.8 1.08,1.42 1.94,1.66c2.65,0.72 5.31,1.08 7.98,1.08c2.67,0 5.33,-0.36 7.98,-1.08c0.86,-0.24 1.58,-0.86 1.94,-1.66c1.82,-4.15 1.82,-8.37 0,-12.52zM12,21c-0.552,0 -1,-0.448 -1,-1c0,-0.552 0.448,-1 1,-1c0.552,0 1,0.448 1,1c0,0.552 -0.448,1 -1,1zM16,21c-0.552,0 -1,-0.448 -1,-1c0,-0.552 0.448,-1 1,-1c0.552,0 1,0.448 1,1c0,0.552 -0.448,1 -1,1zM20,21c-0.552,0 -1,-0.448 -1,-1c0,-0.552 0.448,-1 1,-1c0.552,0 1,0.448 1,1c0,0.552 -0.448,1 -1,1zM21.09,11.46c-3.39,-0.59 -6.79,-0.59 -10.18,0c-0.05,-0.65 -0.07,-1.31 -0.02,-1.95c0.22,-2.67 2.44,-4.76 5.15,-4.77c2.63,0.01 4.85,2.1 5.07,4.77c0.05,0.64 0.03,1.3 -0.02,1.95z"></path></g></g></svg>